<?xml version="1.0" encoding="UTF-8" standalone="no"?>
<svg
   xmlns:dc="http://purl.org/dc/elements/1.1/"
   xmlns:cc="http://creativecommons.org/ns#"
   xmlns:rdf="http://www.w3.org/1999/02/22-rdf-syntax-ns#"
   xmlns:svg="http://www.w3.org/2000/svg"
   xmlns="http://www.w3.org/2000/svg"
   xmlns:sodipodi="http://sodipodi.sourceforge.net/DTD/sodipodi-0.dtd"
   xmlns:inkscape="http://www.inkscape.org/namespaces/inkscape"
   width="210mm"
   height="297mm"
   viewBox="0 0 210 297"
   version="1.1"
   id="svg1121"
   inkscape:version="1.0.2-2 (e86c870879, 2021-01-15)"
   sodipodi:docname="penny-farthing-clock-proto.svg">
  <defs
     id="defs1115">
    <inkscape:path-effect
       effect="bspline"
       id="path-effect1056"
       is_visible="true"
       lpeversion="1"
       weight="33.333333"
       steps="2"
       helper_size="0"
       apply_no_weight="true"
       apply_with_weight="true"
       only_selected="false" />
    <inkscape:path-effect
       effect="bspline"
       id="path-effect1058"
       is_visible="true"
       lpeversion="1"
       weight="33.333333"
       steps="2"
       helper_size="0"
       apply_no_weight="true"
       apply_with_weight="true"
       only_selected="false" />
    <inkscape:path-effect
       effect="bspline"
       id="path-effect1060"
       is_visible="true"
       lpeversion="1"
       weight="33.333333"
       steps="2"
       helper_size="0"
       apply_no_weight="true"
       apply_with_weight="true"
       only_selected="false" />
    <inkscape:path-effect
       effect="bspline"
       id="path-effect1062"
       is_visible="true"
       lpeversion="1"
       weight="33.333333"
       steps="2"
       helper_size="0"
       apply_no_weight="true"
       apply_with_weight="true"
       only_selected="false" />
    <inkscape:path-effect
       effect="bspline"
       id="path-effect1064"
       is_visible="true"
       lpeversion="1"
       weight="33.333333"
       steps="2"
       helper_size="0"
       apply_no_weight="true"
       apply_with_weight="true"
       only_selected="false" />
    <inkscape:path-effect
       effect="bspline"
       id="path-effect1066"
       is_visible="true"
       lpeversion="1"
       weight="33.333333"
       steps="2"
       helper_size="0"
       apply_no_weight="true"
       apply_with_weight="true"
       only_selected="false" />
    <inkscape:path-effect
       effect="bspline"
       id="path-effect1068"
       is_visible="true"
       lpeversion="1"
       weight="33.333333"
       steps="2"
       helper_size="0"
       apply_no_weight="true"
       apply_with_weight="true"
       only_selected="false" />
    <inkscape:path-effect
       effect="bspline"
       id="path-effect1070"
       is_visible="true"
       lpeversion="1"
       weight="33.333333"
       steps="2"
       helper_size="0"
       apply_no_weight="true"
       apply_with_weight="true"
       only_selected="false" />
    <inkscape:path-effect
       effect="bspline"
       id="path-effect1072"
       is_visible="true"
       lpeversion="1"
       weight="33.333333"
       steps="2"
       helper_size="0"
       apply_no_weight="true"
       apply_with_weight="true"
       only_selected="false" />
  </defs>
  <sodipodi:namedview
     id="base"
     pagecolor="#ffffff"
     bordercolor="#666666"
     borderopacity="1.0"
     inkscape:pageopacity="0.0"
     inkscape:pageshadow="2"
     inkscape:zoom="2.8"
     inkscape:cx="96.842306"
     inkscape:cy="177.00734"
     inkscape:document-units="mm"
     inkscape:current-layer="layer1"
     inkscape:document-rotation="0"
     showgrid="false"
     inkscape:window-width="3440"
     inkscape:window-height="1377"
     inkscape:window-x="-8"
     inkscape:window-y="1432"
     inkscape:window-maximized="1"
     inkscape:snap-global="false" />
  <metadata
     id="metadata1118">
    <rdf:RDF>
      <cc:Work
         rdf:about="">
        <dc:format>image/svg+xml</dc:format>
        <dc:type
           rdf:resource="http://purl.org/dc/dcmitype/StillImage" />
        <dc:title />
      </cc:Work>
    </rdf:RDF>
  </metadata>
  <g
     inkscape:label="Layer 1"
     inkscape:groupmode="layer"
     id="layer1">
    <circle
       style="fill:#000000;fill-opacity:0.421829;stroke-width:6.18642;stroke-linecap:square"
       id="path847-91"
       cx="41.694286"
       cy="49.21666"
       r="35.480034" />
    <circle
       style="fill:#000000;fill-opacity:0.421829;stroke-width:1.85243;stroke-linecap:square"
       id="path847-9-2"
       cx="85.593323"
       cy="65.453293"
       r="10.623968" />
    <path
       style="fill:#d40000;fill-opacity:0.421829;stroke-width:6.00001;stroke-linecap:square"
       d="m 44.066431,10.317812 c 0.434442,-0.01114 1.303073,-0.0334 2.317141,0.0977 1.014068,0.131105 2.215495,0.425793 3.496179,0.815583 1.280683,0.38979 2.661543,0.879771 4.164953,1.436595 1.503411,0.556823 3.129263,1.180439 4.643799,1.948887 1.514537,0.768449 2.917672,1.681601 4.354254,2.695021 1.436583,1.01342 2.906534,2.127018 4.398776,3.585914 1.492243,1.458895 3.006744,3.262935 4.376465,5.467951 1.369722,2.205016 2.594679,4.810837 3.71165,7.616068 1.116971,2.80523 2.112491,5.76967 2.878418,8.398414 0.765926,2.628744 1.305376,4.943876 1.66193,6.738327 0.356555,1.79445 0.534315,3.083208 0.779427,3.885006 0.245112,0.801797 0.556917,1.113602 0.734989,1.403164 0.178072,0.289562 0.222614,0.556825 0.189254,0.712556 -0.03336,0.155731 -0.144739,0.200285 -0.45657,0.356195 -0.311832,0.15591 -0.824089,0.423175 -1.124727,0.479042 -0.300637,0.05587 -0.389732,-0.100048 -0.478889,-0.478693 -0.08916,-0.378645 -0.178246,-0.97999 -0.167121,-1.325369 0.01113,-0.34538 0.122501,-0.43448 -0.111346,-1.737281 -0.233848,-1.3028 -0.81292,-3.819542 -1.703814,-6.959989 -0.890894,-3.140447 -2.093586,-6.904426 -3.173783,-9.788727 -1.080197,-2.884301 -2.03789,-4.888779 -3.036458,-6.631955 -0.998569,-1.743175 -2.052699,-3.245868 -3.221991,-4.626794 -1.169292,-1.380925 -2.461068,-2.650429 -4.153779,-4.009091 -1.692712,-1.358662 -3.786274,-2.806339 -5.813079,-3.98682 -2.026806,-1.180482 -3.986744,-2.093637 -5.801968,-2.761851 -1.815224,-0.668214 -3.485624,-1.091382 -4.989048,-1.336412 -1.503423,-0.24503 -2.839741,-0.311845 -3.496959,-0.378561 -0.657219,-0.06672 -0.634933,-0.133591 -0.590378,-0.400835 0.04455,-0.267244 0.111372,-0.734952 0.144798,-0.968926 0.03343,-0.233974 0.03344,-0.233984 0.467877,-0.245121 z"
       id="path869-8"
       inkscape:path-effect="#path-effect1056"
       inkscape:original-d="m 43.63199,10.328949 c 0.86889,-0.022 1.73752,-0.0443 2.60588,-0.0668 1.15846,0.28981 2.36115,0.57935 3.54132,0.86862 1.38119,0.49027 2.76205,0.98025 4.14268,1.46998 1.62619,0.62391 3.25204,1.24753 4.87767,1.87089 1.40346,0.91345 2.80659,1.82661 4.20949,2.73951 1.47028,1.11391 2.94023,2.22751 4.40995,3.34087 1.51482,1.80437 3.02932,3.60841 4.54358,5.41221 1.22527,2.6062 2.45023,5.21202 3.67495,7.81763 1.00254,3.00711 2.00479,5.96929 3.00678,8.95353 0.53482,2.27211 1.06934,4.58839 1.60362,6.88219 0.20072,1.2921 0.35662,2.583873 0.53454,3.875413 0.31208,0.31209 0.62389,0.62389 0.93544,0.93544 0.0448,0.26754 0.0893,0.53481 0.13363,0.80181 -0.11109,0.0448 -0.22245,0.0894 -0.33408,0.13364 -0.51201,0.26754 -1.02427,0.5348 -1.5368,0.80181 -0.0888,-0.15565 -0.17792,-0.31155 -0.26727,-0.46772 -0.0888,-0.60111 -0.17792,-1.20245 -0.26727,-1.80407 0.11163,-0.0888 0.22299,-0.17792 0.33409,-0.26727 -0.57883,-2.516583 -1.15791,-5.033323 -1.73725,-7.550373 -1.20248,-3.76385 -2.40517,-7.52783 -3.60814,-11.29214 -0.95748,-2.00429 -1.91517,-4.00877 -2.87314,-6.01356 -1.02429,-1.49202 -2.09335,-2.98424 -3.14042,-4.47676 -1.29156,-1.2693 -2.58334,-2.5388 -3.87541,-3.80859 -2.09339,-1.44748 -4.18695,-2.89516 -6.28083,-4.34313 -1.95975,-0.91293 -3.91969,-1.82608 -5.87993,-2.73952 -1.6702,-0.42292 -3.3406,-0.84609 -5.0113,-1.26953 -1.33611,-0.0666 -2.67243,-0.13337 -4.00905,-0.20045 0.0225,-0.0665 0.0448,-0.13337 0.0668,-0.20045 0.0671,-0.46747 0.1339,-0.93518 0.20046,-1.40317 z" />
    <path
       style="fill:#a05a2c;fill-opacity:0.421829;stroke-width:6.00001;stroke-linecap:square"
       d="m 46.371527,6.6873877 c 0.133656,-0.1002412 0.400925,-0.30069 0.949527,-0.2950645 0.548602,0.00563 1.378234,0.2172076 2.219021,0.381448 0.840786,0.1642404 1.692685,0.2811675 2.591951,0.4036677 0.899265,0.1225001 1.845825,0.250564 2.76456,0.3312874 0.918734,0.080723 1.809614,0.1141327 2.622559,0.1169109 0.812946,0.00278 1.547915,-0.025054 2.079634,-0.083536 0.531719,-0.058482 0.860235,-0.1475713 1.236089,-0.2450125 0.375854,-0.097441 0.799024,-0.2032321 1.161013,-0.2310241 0.361988,-0.027792 0.662664,0.022321 0.874196,0.1505218 0.211532,0.1282005 0.334025,0.3342087 0.375674,0.4760856 0.04165,0.1418768 0.0027,0.2198528 -0.189324,0.3005152 -0.191984,0.080662 -0.537201,0.1641842 -0.88525,0.2894637 -0.348049,0.1252795 -0.698831,0.2923143 -1.021793,0.4537919 -0.322962,0.1614775 -0.61806,0.3173812 -0.960474,0.4593717 -0.342413,0.1419905 -0.732172,0.2700545 -1.04681,0.4036908 -0.314639,0.1336362 -0.554061,0.2728319 -0.846365,0.4120326 -0.292304,0.1392 -0.637524,0.278402 -0.957638,0.356375 -0.320115,0.07797 -0.615215,0.09467 -1.041183,0.111293 -0.425968,0.01662 -0.993893,0.03349 -1.595234,-0.02216 -0.60134,-0.05565 -1.24166,-0.183714 -1.870857,-0.328476 C 52.201626,9.9838023 51.583577,9.8223285 50.957162,9.6191102 50.330747,9.4158919 49.695985,9.1708959 49.192071,8.970449 48.688157,8.770002 48.315096,8.614096 48.003255,8.410925 47.691415,8.2077539 47.44085,7.9571889 47.198559,7.8100305 46.956269,7.662872 46.711473,7.6173304 46.544368,7.5200106 46.377263,7.4226908 46.282613,7.272361 46.243521,7.1414601 46.204428,7.0105592 46.221128,6.8991992 46.229494,6.843414 c 0.0084,-0.055785 0.0084,-0.055785 0.142033,-0.1560263 z"
       id="path873-6"
       inkscape:path-effect="#path-effect1058"
       inkscape:original-d="m 46.23787,6.7876289 c 0.26754,-0.20018 0.5348,-0.40064 0.80181,-0.60135 0.82993,0.21185 1.65956,0.42344 2.48895,0.63476 0.8522,0.1172 1.7041,0.23412 2.55576,0.35079 0.94687,0.12834 1.89343,0.2564 2.83974,0.3842 0.89118,0.0337 1.78206,0.0671 2.6727,0.10023 0.73527,-0.0276 1.47024,-0.0554 2.20497,-0.0835 0.32879,-0.0888 0.6573,-0.17791 0.98555,-0.26727 0.42345,-0.10553 0.84662,-0.21132 1.26954,-0.31738 0.30094,0.0504 0.60162,0.10049 0.90203,0.15034 0.12277,0.20629 0.24526,0.4123 0.3675,0.61806 -0.0387,0.0782 -0.0777,0.15617 -0.11693,0.23386 -0.34497,0.0838 -0.69019,0.16731 -1.03567,0.25057 -0.35054,0.16731 -0.70132,0.33435 -1.05238,0.50112 -0.29485,0.15618 -0.58995,0.31208 -0.88533,0.46773 -0.38951,0.12833 -0.77927,0.25639 -1.1693,0.3842 -0.23917,0.13946 -0.47859,0.27866 -0.71829,0.4176001 -0.34496,0.13947 -0.69018,0.27867 -1.03567,0.41761 -0.29485,0.017 -0.58995,0.0337 -0.88533,0.0501 -0.55656,0.017 -1.12449,0.0337 -1.68714,0.0501 -0.64008,-0.12781 -1.2804,-0.25587 -1.921,-0.3842 -0.6178,-0.1612201 -1.23585,-0.3226901 -1.85418,-0.4844301 -0.63451,-0.24473 -1.26927,-0.48973 -1.90429,-0.73499 -0.37281,-0.15564 -0.74587,-0.31155 -1.11919,-0.46772 -0.25031,-0.2503 -0.50087,-0.50087 -0.7517,-0.7517 -0.2336,-0.0443 -0.47859,-0.0888 -0.71829,-0.13363 -0.0944,-0.15008 -0.18905,-0.30041 -0.28397,-0.45102 0.017,-0.1111 0.0337,-0.22246 0.0501,-0.33408 z" />
    <path
       style="fill:#333333;fill-opacity:0.421829;stroke-width:6.00001;stroke-linecap:square"
       d="m 52.680279,11.893571 c 0.44555,-0.08911 1.33645,-0.267285 1.775452,-0.375404 0.439002,-0.108119 0.429525,-0.13656 0.421131,-0.292473 -0.0084,-0.155914 -0.01396,-0.43432 -0.0027,-0.562414 0.01127,-0.128093 0.0391,-0.10583 0.392664,-0.108727 0.353565,-0.0029 1.032864,-0.03073 1.392022,-0.04184 0.359159,-0.01111 0.398135,-0.0055 0.403552,0.10592 0.0054,0.111461 -0.02242,0.328607 0.108256,0.42039 0.13067,0.09178 0.420826,0.05831 0.721557,0.11129 0.300732,0.05298 0.612542,0.192185 0.924335,0.406614 0.311794,0.214429 0.623601,0.503963 0.899177,0.865927 0.275576,0.361964 0.514998,0.796263 0.72378,1.238935 0.208782,0.442672 0.386956,0.893684 0.519828,1.269755 0.132872,0.37607 0.223451,0.687436 0.24583,0.823809 0.02238,0.136373 -0.02213,0.102988 -0.292203,-0.06966 -0.270072,-0.172643 -0.765624,-0.48445 -1.019083,-0.659784 C 59.640427,14.85058 59.62929,14.81159 59.6209,14.655665 c -0.0084,-0.155925 -0.01396,-0.428761 -0.105737,-0.704368 -0.09178,-0.275606 -0.26995,-0.554005 -0.498204,-0.81574 -0.228254,-0.261735 -0.506653,-0.506726 -0.760381,-0.675645 -0.253728,-0.168919 -0.492363,-0.265509 -0.787519,-0.293425 -0.295156,-0.02792 -0.651509,0.01106 -0.999556,0.08622 -0.348048,0.07516 -0.687698,0.186514 -0.8604,0.264583 -0.172702,0.07807 -0.17828,0.12271 -0.1922,0.19226 -0.01392,0.06955 -0.03619,0.164237 -0.0473,0.217165 -0.01111,0.05293 -0.01111,0.06403 -0.172428,0.01107 -0.161319,-0.05296 -0.484269,-0.169889 -0.846199,-0.30074 -0.361929,-0.130851 -0.762821,-0.275617 -1.052372,-0.381413 -0.289551,-0.105796 -0.467714,-0.17261 -0.626424,-0.211635 -0.15871,-0.03903 -0.297908,-0.05016 -0.367652,-0.05574 -0.06974,-0.0056 -0.06979,-0.0056 0.375754,-0.09469 z"
       id="path877-3"
       inkscape:path-effect="#path-effect1060"
       inkscape:original-d="m 52.23473,11.982679 c 0.89116,-0.17791 1.78206,-0.35609 2.6727,-0.53453 -0.0109,-0.0387 -0.022,-0.0666 -0.0334,-0.10023 -0.005,-0.27815 -0.0109,-0.55655 -0.0167,-0.83522 0.0281,0.0225 0.0559,0.0448 0.0835,0.0668 0.67958,-0.0276 1.35888,-0.0554 2.03793,-0.0835 0.0392,0.006 0.0782,0.0114 0.11693,0.0167 -0.0276,0.21743 -0.0554,0.43458 -0.0835,0.65147 0.28981,-0.0276 0.57934,-0.0665 0.86862,-0.10022 0.31209,0.13947 0.6239,0.27867 0.93545,0.41761 0.31208,0.28981 0.62389,0.57934 0.93544,0.86862 0.2397,0.43459 0.47912,0.86889 0.71829,1.30294 0.17844,0.45129 0.35662,0.9023 0.53453,1.35305 0.0894,0.30095 0.17845,0.61276 0.26727,0.91874 -0.0443,-0.0331 -0.0888,-0.0665 -0.13363,-0.10023 -0.49531,-0.31155 -0.99086,-0.62336 -1.48669,-0.93544 -0.0109,-0.0387 -0.022,-0.0777 -0.0334,-0.11693 -0.005,-0.27258 -0.0109,-0.54541 -0.0167,-0.81851 -0.17792,-0.27815 -0.35609,-0.55655 -0.53453,-0.83522 -0.27815,-0.24474 -0.55655,-0.48973 -0.83522,-0.73499 -0.22804,-0.0944 -0.46746,-0.18905 -0.70158,-0.28397 -0.35611,0.0392 -0.71246,0.0782 -1.06908,0.11693 -0.3394,0.11163 -0.67905,0.22299 -1.01897,0.33408 -0.005,0.0448 -0.0109,0.0894 -0.0167,0.13364 -0.022,0.0949 -0.0443,0.18958 -0.0668,0.28397 2.7e-4,0.0114 2.7e-4,0.0225 0,0.0334 -0.32269,-0.11667 -0.64564,-0.2336 -0.96885,-0.35079 -0.40065,-0.14451 -0.80154,-0.28928 -1.20271,-0.43431 -0.17792,-0.0666 -0.3561,-0.13337 -0.53454,-0.20046 -0.13894,-0.0109 -0.27814,-0.022 -0.41761,-0.0334 z" />
    <path
       style="fill:#333333;fill-opacity:0.421829;stroke-width:6.00001;stroke-linecap:square"
       d="m 38.53083,9.2791289 c 0,0 0,0 0.04723,-0.070851 0.04723,-0.070851 0.141709,-0.2125638 0.200776,-0.3502982 0.05907,-0.1377344 0.0827,-0.2715889 0.07092,-0.6259157 -0.01178,-0.3543268 -0.05902,-0.9291432 -0.07085,-1.4488863 -0.01183,-0.5197432 0.01181,-0.9843215 0.07481,-1.2718637 0.063,-0.2875422 0.165373,-0.3977838 0.283497,-0.5198445 0.118124,-0.1220608 0.251984,-0.2559208 0.425383,-0.2637091 0.173399,-0.00779 0.386003,0.1103249 0.578928,0.2047954 0.192925,0.09447 0.366167,0.1653413 0.555036,0.137694 0.188869,-0.027647 0.393608,-0.1536387 0.511671,-0.3149415 0.118064,-0.1613027 0.149563,-0.3581628 0.208615,-0.5511368 0.05905,-0.192974 0.145668,-0.3819564 0.326967,-0.4370906 0.1813,-0.055134 0.456904,0.023612 0.685206,0.2008962 0.228303,0.1772846 0.409416,0.452892 0.555041,0.7796919 0.145625,0.3268 0.255866,0.7047696 0.30305,1.0157805 0.04718,0.3110109 0.03142,0.5551067 0.0354,0.7244653 0.004,0.1693586 0.02761,0.2638033 -0.02747,0.3344957 -0.05508,0.070692 -0.188957,0.1179429 -0.295363,0.216455 -0.106405,0.098512 -0.185145,0.2481168 -0.244203,0.3859546 -0.05906,0.1378377 -0.09843,0.2638363 -0.153503,0.086714 -0.05507,-0.177122 -0.125939,-0.6574523 -0.172795,-1.0079151 -0.04686,-0.3504629 -0.0713,-0.5866159 -0.138252,-0.6418744 -0.06696,-0.055258 -0.177198,0.06286 -0.299273,0.255834 -0.122075,0.1929739 -0.255939,0.4607019 -0.389786,0.6653932 -0.133847,0.2046913 -0.267711,0.346428 -0.409333,0.4251636 -0.141621,0.078736 -0.291235,0.094502 -0.440834,0.031652 C 40.60211,7.1769383 40.452499,7.0351998 40.306783,6.8541095 40.161067,6.6730192 40.019326,6.4525302 39.88552,6.3264243 39.751715,6.2003185 39.625725,6.1688193 39.550738,6.2633952 c -0.07499,0.094576 -0.09862,0.3150524 -0.134063,0.5985341 -0.03544,0.2834816 -0.08269,0.6299456 -0.106296,0.9567626 -0.02361,0.326817 -0.02361,0.633917 -0.01966,0.8228929 0.0039,0.188976 0.01182,0.2599001 -0.02756,0.3227426 -0.03938,0.062843 -0.125954,0.1179341 -0.255832,0.1691169 -0.129878,0.051183 -0.303123,0.098431 -0.389829,0.1220776 -0.08671,0.023647 -0.08667,0.023607 -0.08667,0.023607 z"
       id="path881-0"
       inkscape:path-effect="#path-effect1062"
       inkscape:original-d="m 38.53083,9.2791289 c 2.6e-4,2.7e-4 2.6e-4,2.7e-4 0,0 0.0948,-0.14148 0.18925,-0.28321 0.28348,-0.42522 0.0239,-0.13361 0.0475,-0.26747 0.0709,-0.4016 -0.047,-0.57459 -0.0942,-1.14941 -0.14174,-1.72452 0.0239,-0.46434 0.0475,-0.92892 0.0709,-1.39378 0.10263,-0.10999 0.205,-0.22023 0.30711,-0.33073 0.13413,-0.13361 0.26799,-0.26747 0.4016,-0.4016 0.21288,0.11838 0.42548,0.2365 0.63783,0.35435 0.17351,0.0711 0.34674,0.142 0.51972,0.21261 0.205,-0.12573 0.40974,-0.25172 0.61421,-0.37797 0.0318,-0.19661 0.0633,-0.39347 0.0945,-0.59059 0.0869,-0.18873 0.1735,-0.37772 0.25986,-0.56697 0.27588,0.079 0.55148,0.15776 0.82682,0.23624 0.18138,0.27587 0.36249,0.55148 0.54334,0.82682 0.11051,0.37825 0.22075,0.75622 0.33073,1.13393 -0.0155,0.24438 -0.0312,0.48848 -0.0473,0.73233 0.0239,0.0948 0.0475,0.18925 0.0709,0.28348 -0.13361,0.0475 -0.26747,0.0948 -0.4016,0.14174 -0.0785,0.14989 -0.15723,0.2995 -0.23624,0.44885 -0.0391,0.12626 -0.0785,0.25225 -0.11811,0.37797 -0.0706,-0.48009 -0.14147,-0.96042 -0.21261,-1.44103 -0.0234,-0.22022 -0.047,-0.45646 -0.0709,-0.68508 -0.10998,0.11838 -0.22022,0.2365 -0.33072,0.35435 -0.13361,0.268 -0.26747,0.53573 -0.4016,0.8032 -0.13361,0.14201 -0.26747,0.28375 -0.4016,0.42522 -0.14936,0.016 -0.29897,0.0318 -0.44885,0.0473 -0.14936,-0.14148 -0.29897,-0.28322 -0.44885,-0.42523 -0.14148,-0.22022 -0.28322,-0.44071 -0.42522,-0.66146 -0.12573,-0.0312 -0.25172,-0.0627 -0.37798,-0.0945 -0.0234,0.22076 -0.047,0.44124 -0.0709,0.66146 -0.047,0.34675 -0.0942,0.69322 -0.14174,1.03944 2.7e-4,0.30737 2.7e-4,0.61447 0,0.92131 0.008,0.0711 0.016,0.14201 0.0236,0.21262 -0.0864,0.0554 -0.17297,0.1105 -0.25986,0.16536 -0.17298,0.0475 -0.34621,0.0948 -0.51972,0.14174 z" />
    <path
       style="fill:#1a1a1a;fill-opacity:0.421829;stroke-width:6.00001;stroke-linecap:square"
       d="m 40.88137,13.421246 c 0.01181,-0.204613 0.03544,-0.614081 0.08268,-1.035391 0.04724,-0.421309 0.11811,-0.854394 0.149632,-1.307161 0.03152,-0.452767 0.02365,-0.925221 0.004,-1.3976888 -0.01968,-0.4724675 -0.05118,-0.9449375 -0.03152,-1.3268955 0.01965,-0.381958 0.09052,-0.6733152 0.196856,-0.8860259 0.106333,-0.2127106 0.248074,-0.3465789 0.409474,-0.5670229 0.1614,-0.2204441 0.342507,-0.527536 0.42921,-0.4171972 0.0867,0.1103388 0.07872,0.6536617 0.122086,1.0867933 0.04336,0.4331316 0.137858,0.763852 0.275721,0.9132888 0.137864,0.1494369 0.318974,0.1179375 0.488332,0.1456027 0.169358,0.027665 0.326844,0.1142829 0.452737,0.2954793 0.125892,0.1811964 0.220379,0.4567838 0.303916,0.6768922 0.08354,0.2201084 0.205114,0.495963 0.154005,0.590327 -0.05111,0.09436 -0.250534,0.06313 -0.362228,0.189362 -0.111695,0.126229 -0.135327,0.409696 -0.158957,0.764061 -0.02363,0.354365 -0.04726,0.779573 -0.07877,1.149668 -0.03151,0.370094 -0.07088,0.685067 -0.109686,0.888371 -0.03881,0.203303 -0.07934,0.300573 -0.177781,0.362759 -0.09844,0.06219 -0.271407,0.09513 -0.641477,0.103039 -0.37007,0.0079 -0.944899,-0.0078 -1.232452,-0.0157 -0.287554,-0.0079 -0.287564,-0.0079 -0.275754,-0.212563 z"
       id="path885-7"
       inkscape:path-effect="#path-effect1064"
       inkscape:original-d="m 40.86956,13.625859 c 0.0239,-0.40921 0.0475,-0.81868 0.0709,-1.22842 0.0711,-0.43285 0.142,-0.86593 0.21261,-1.2993 -0.008,-0.47221 -0.0155,-0.94467 -0.0236,-1.4174101 -0.0312,-0.47221 -0.0627,-0.94468 -0.0945,-1.41741 0.0711,-0.2911 0.142,-0.58245 0.21261,-0.87407 0.14201,-0.1336 0.28375,-0.26747 0.42522,-0.4016 0.18138,-0.30685 0.36249,-0.61394 0.54334,-0.92131 -0.008,0.52786 -0.0155,1.07119 -0.0236,1.60639 0.0948,0.331 0.18926,0.66173 0.28349,0.99219 0.18138,-0.0312 0.36249,-0.0627 0.54334,-0.0945 0.15775,0.0869 0.31524,0.17351 0.47247,0.25986 0.0948,0.27588 0.18925,0.55148 0.28348,0.82682 0.0711,0.16563 0.19439,0.4407301 0.29119,0.6607001 -0.19917,-0.031 -0.3986,-0.0622 -0.5983,-0.0937 -0.0234,0.28376 -0.047,0.56723 -0.0709,0.85045 -0.0234,0.4255 -0.047,0.85071 -0.0709,1.27567 -0.0391,0.31525 -0.0785,0.63022 -0.11811,0.94494 -0.0312,0.0948 -0.0785,0.18925 -0.11812,0.28348 -0.15723,0.0318 -0.33047,0.0633 -0.4961,0.0945 -0.57458,-0.0155 -1.14941,-0.0312 -1.72451,-0.0472 z" />
    <path
       style="fill:#c87137;fill-opacity:0.421829;stroke-width:6.00001;stroke-linecap:square"
       d="m 38.444201,9.3775712 c -0.08663,0.098442 -0.259864,0.2952989 -0.342538,0.4883559 -0.08268,0.1930569 -0.07481,0.3820429 -0.01561,0.5198259 0.0592,0.137782 0.169436,0.224397 0.291426,0.243939 0.121991,0.01954 0.255837,-0.0277 0.425092,-0.126122 0.169255,-0.09843 0.373984,-0.248036 0.543247,-0.417298 0.169262,-0.1692611 0.303128,-0.3582469 0.34258,-0.5195499 0.03945,-0.161303 -0.01566,-0.2951498 -0.07076,-0.4054226 -0.0551,-0.1102729 -0.110194,-0.1968376 -0.216542,-0.2009595 -0.106349,-0.00412 -0.263845,0.074628 -0.41738,0.1415623 -0.153536,0.066935 -0.303149,0.1220544 -0.378027,0.1496405 -0.07488,0.027586 -0.07486,0.027586 -0.161486,0.1260284 z"
       id="path889-2"
       inkscape:path-effect="#path-effect1066"
       inkscape:original-d="m 38.53083,9.2791289 c -0.17298,0.19713 -0.34621,0.39399 -0.51972,0.59059 0.008,0.1892601 0.016,0.3782401 0.0236,0.5669601 0.11051,0.0869 0.22075,0.17351 0.33073,0.25986 0.13414,-0.047 0.268,-0.0942 0.4016,-0.14174 0.20501,-0.14935 0.40974,-0.29896 0.61421,-0.44885 0.13414,-0.1887201 0.268,-0.3777101 0.4016,-0.5669601 -0.0549,-0.13361 -0.10998,-0.26747 -0.16536,-0.4016 -0.0549,-0.0864 -0.10998,-0.17297 -0.16537,-0.25986 -0.15722,0.079 -0.31471,0.15776 -0.47247,0.23624 -0.14935,0.0554 -0.29897,0.1105 -0.44884,0.16536 z" />
    <path
       style="fill:#c87137;fill-opacity:0.421829;stroke-width:6.00001;stroke-linecap:square"
       d="m 43.070471,7.1845271 c 0.05117,-0.062982 0.153538,-0.1889747 0.307241,-0.2559251 0.153703,-0.06695 0.358419,-0.074816 0.598609,-0.066915 0.24019,0.0079 0.515787,0.031533 0.740231,0.070951 0.224443,0.039418 0.397679,0.09454 0.515686,0.228521 0.118007,0.1339809 0.181,0.3465809 0.208512,0.551293 0.02751,0.204712 0.01965,0.4015574 -0.0433,0.5352711 -0.06294,0.1337136 -0.181073,0.2045913 -0.405403,0.2400486 -0.224331,0.035457 -0.555061,0.035457 -0.889717,0.00792 -0.334656,-0.027537 -0.67324,-0.082654 -0.929164,-0.1731277 -0.255925,-0.090474 -0.429163,-0.2164659 -0.48615,-0.3316882 -0.05699,-0.1152222 0.0094,-0.2313875 0.08421,-0.3534555 0.07481,-0.1220679 0.161429,-0.2559278 0.20476,-0.3228947 0.04333,-0.066967 0.04331,-0.067017 0.09448,-0.1299986 z"
       id="path893-2"
       inkscape:path-effect="#path-effect1068"
       inkscape:original-d="m 43.0193,7.2475089 c 0.10263,-0.12573 0.205,-0.25172 0.3071,-0.37798 0.20501,-0.008 0.40974,-0.0155 0.61421,-0.0236 0.27588,0.0239 0.55148,0.0475 0.82682,0.0709 0.17351,0.0554 0.34675,0.11051 0.51972,0.16537 0.0633,0.21288 0.12626,0.42549 0.18899,0.63783 -0.008,0.19713 -0.0155,0.39399 -0.0236,0.59059 -0.11786,0.0711 -0.23597,0.14201 -0.35435,0.21261 -0.33047,2.7e-4 -0.6612,2.7e-4 -0.99219,0 -0.33835,-0.0549 -0.67694,-0.10998 -1.01581,-0.16536 -0.17298,-0.12573 -0.34622,-0.25172 -0.51972,-0.37798 0.0633,-0.1021 0.12626,-0.22022 0.18899,-0.33073 0.0869,-0.1336 0.1735,-0.26747 0.25986,-0.4016 z" />
    <path
       style="fill:#333333;fill-opacity:0.421829;stroke-width:6.00001;stroke-linecap:square"
       d="m 57.83124,10.224069 c 0,0 0,0 0.149775,0.03153 0.149775,0.03153 0.448988,0.09452 0.712768,0.12993 0.263781,0.0354 0.492146,0.04327 0.700816,0.0472 0.208671,0.0039 0.397651,0.0039 0.51955,-0.06687 0.1219,-0.07081 0.177019,-0.212541 0.216405,-0.362116 0.03939,-0.149575 0.06302,-0.3070601 0.07878,-0.4251729 0.01576,-0.1181128 0.02362,-0.1968562 0.06304,-0.2521146 0.03942,-0.055258 0.110324,-0.086773 0.161502,-0.051152 0.05118,0.035621 0.08268,0.1379909 0.08261,0.2993665 -6.6e-5,0.1613756 -0.03157,0.3818558 -0.07489,0.5511182 -0.04333,0.169262 -0.09844,0.287358 -0.159443,0.38355 -0.06101,0.09619 -0.135815,0.179316 -0.289247,0.230486 -0.153431,0.05117 -0.389658,0.0748 -0.688866,0.05909 -0.299209,-0.01571 -0.661422,-0.07083 -0.94884,-0.114145 -0.287418,-0.04331 -0.500028,-0.07481 -0.645702,-0.110194 -0.145674,-0.03538 -0.224418,-0.07475 -0.303474,-0.114282"
       id="path981-5"
       inkscape:path-effect="#path-effect1070"
       inkscape:original-d="m 57.83124,10.224069 c 2.6e-4,2.7e-4 2.6e-4,2.7e-4 0,0 0.2995,0.0633 0.59872,0.12626 0.89769,0.18899 0.22863,0.008 0.45699,0.016 0.68508,0.0236 0.18926,2.6e-4 0.37824,2.6e-4 0.56697,0 0.0554,-0.14148 0.11051,-0.28322 0.16536,-0.42522 0.0239,-0.1572301 0.0475,-0.3147201 0.0709,-0.4724701 0.008,-0.0785 0.016,-0.15723 0.0236,-0.23624 0.0711,-0.0312 0.14201,-0.0627 0.21261,-0.0945 0.0318,0.10263 0.0633,0.205 0.0945,0.3071 -0.0312,0.22076 -0.0627,0.44124 -0.0945,0.6614601 -0.0549,0.11839 -0.10998,0.2365 -0.16536,0.35435 -0.0706,0.0711 -0.14148,0.15776 -0.21261,0.23624 -0.23598,0.0239 -0.47221,0.0475 -0.70871,0.0709 -0.36197,-0.0549 -0.72419,-0.10998 -1.08668,-0.16537 -0.21235,-0.0312 -0.42496,-0.0627 -0.63783,-0.0945 -0.0785,-0.0391 -0.15723,-0.0785 -0.23624,-0.11812" />
    <path
       style="fill:#333333;fill-opacity:0.421829;stroke-width:6.00001;stroke-linecap:square"
       d="m 62.406345,8.4406378 c 0.01577,0.1536988 0.04726,0.4608088 0.02754,0.6811992 -0.01973,0.2203904 -0.0906,0.354256 -0.212612,0.4920004 -0.122016,0.1377444 -0.295254,0.2794864 -0.46058,0.3897146 -0.165326,0.110228 -0.322818,0.188972 -0.527477,0.22444 -0.204658,0.03547 -0.456637,0.0276 -0.830671,0.004 -0.374033,-0.02361 -0.870125,-0.06299 -1.318997,-0.06694 -0.448871,-0.004 -0.850461,0.02754 -0.893806,-0.0079 -0.04334,-0.03545 0.271628,-0.137815 0.519712,-0.2008042 0.248084,-0.06299 0.429189,-0.086622 0.630021,-0.086592 0.200832,3.02e-5 0.421319,0.023663 0.641784,0.027589 0.220465,0.00393 0.440943,-0.011807 0.661429,-0.031495 0.220486,-0.019688 0.440963,-0.04332 0.641722,-0.086649 0.20076,-0.043329 0.381878,-0.1063274 0.49989,-0.2164658 0.118012,-0.1101384 0.173135,-0.2676239 0.216454,-0.4250923 0.04332,-0.1574684 0.07482,-0.3149584 0.137829,-0.4567847 0.06301,-0.1418264 0.157492,-0.2678016 0.204755,-0.3308188 0.04726,-0.063017 0.04724,-0.063077 0.06301,0.090622 z"
       id="path985-8"
       inkscape:path-effect="#path-effect1072"
       inkscape:original-d="m 62.39058,8.2869389 c 0.0318,0.30737 0.0633,0.61448 0.0945,0.92132 -0.0706,0.13414 -0.14148,0.268 -0.21261,0.4016 -0.17298,0.14201 -0.34622,0.28375 -0.51972,0.4252301 -0.15723,0.079 -0.31472,0.15775 -0.47247,0.23623 -0.25172,-0.008 -0.50371,-0.0155 -0.75595,-0.0236 -0.49584,-0.0391 -0.99193,-0.0785 -1.48829,-0.11812 -0.40134,0.0318 -0.80293,0.0633 -1.20479,0.0945 0.31525,-0.1021 0.63022,-0.20447 0.94494,-0.3071001 0.18138,-0.0234 0.36249,-0.047 0.54334,-0.0709 0.22075,0.0239 0.44124,0.0475 0.66146,0.0709 0.22075,-0.0155 0.44123,-0.0312 0.66145,-0.0472 0.22076,-0.0234 0.44124,-0.047 0.66146,-0.0709 0.18139,-0.0627 0.3625,-0.12572 0.54334,-0.18899 0.0554,-0.15722 0.11051,-0.31471 0.16537,-0.47246 0.0318,-0.15723 0.0633,-0.31472 0.0945,-0.47247 0.0948,-0.12573 0.18925,-0.25173 0.28349,-0.37798 z" />
    <path
       id="rect2314"
       style="fill:#333333;fill-opacity:0.421829;stroke-width:6.00002;stroke-linecap:square"
       d="m 80.857475,56.45288 0.588923,-0.301156 4.049836,8.542273 -0.07899,0.02712 z"
       sodipodi:nodetypes="ccccc" />
    <path
       id="rect2314-8"
       style="fill:#333333;fill-opacity:0.421829;stroke-width:19.9843;stroke-linecap:square"
       d="m 40.962413,13.783712 h 1.930989 L 42.065837,49.6928 41.82447,49.647924 Z"
       sodipodi:nodetypes="ccccc" />
  </g>
</svg>
